<svg id="Layer_1" data-name="Layer 1" xmlns="http://www.w3.org/2000/svg" viewBox="0 0 50.98 50.98"><defs><style>.cls-1{fill:#5a2b7a;}</style></defs><path class="cls-1" d="M323.36,377a25.39,25.39,0,1,0,2.26,36A25.46,25.46,0,0,0,323.36,377Zm.48,34.62a6.42,6.42,0,0,1-2.52.52h0a6.71,6.71,0,0,1-1.94-.3,20.4,20.4,0,0,1-13,4.76A20.31,20.31,0,1,1,326,401.19a6.38,6.38,0,0,1,1.26,1.93,6.49,6.49,0,0,1-3.44,8.51Z" transform="translate(-281.01 -370.51)"/><path class="cls-1" d="M323.06,404.16a2.72,2.72,0,0,0-.95-1.15l-1.08-.74.39-1.25a15.77,15.77,0,1,0-15.05,11.08,15.52,15.52,0,0,0,6.15-1.26,15.73,15.73,0,0,0,4.71-3.08l.95-.9,1.13.64a2.66,2.66,0,0,0,1.32.35,2.65,2.65,0,0,0,2.44-1.65A2.67,2.67,0,0,0,323.06,404.16ZM305.63,383a.93.93,0,1,1,1.85,0v2.14a.93.93,0,1,1-1.85,0Zm-4.39,15.3a6.66,6.66,0,1,1,10.47.06,33.68,33.68,0,0,0-2.21,3.21v2.16l-6.11,0v-2.22A29.55,29.55,0,0,0,301.24,398.31Zm-1.8-13.95a.93.93,0,0,1,1.29.21l1.25,1.75a.93.93,0,0,1-.21,1.29.89.89,0,0,1-.54.17.91.91,0,0,1-.75-.38l-1.25-1.75A.93.93,0,0,1,299.44,384.36Zm-1.26,13.46-2,.65a1,1,0,0,1-.29,0,.93.93,0,0,1-.27-1.81l2-.65a.93.93,0,0,1,1.16.6A.91.91,0,0,1,298.18,397.82Zm.63-6.17a.93.93,0,0,1-.88.63,1,1,0,0,1-.29,0l-2-.68a.92.92,0,0,1-.58-1.17.91.91,0,0,1,1.16-.58l2,.67A.93.93,0,0,1,298.81,391.65ZM301.9,402l-1.27,1.73a.91.91,0,0,1-.75.38.9.9,0,0,1-.54-.18.93.93,0,0,1-.2-1.29l1.28-1.73a.91.91,0,0,1,1.28-.2A.93.93,0,0,1,301.9,402Zm5.8,6.8a1.28,1.28,0,0,1-2.54,0,1.63,1.63,0,0,1-1.52-1.62l5.59,0A1.62,1.62,0,0,1,307.7,408.82Zm1.2-2.64-4.93,0a.69.69,0,0,1,0-1.38l4.93,0a.7.7,0,1,1,0,1.39Zm4.66-2.16a.9.9,0,0,1-.54.18,1,1,0,0,1-.75-.39L311,402.07a.92.92,0,1,1,1.5-1.08l1.25,1.74A.93.93,0,0,1,313.56,404Zm.3-18.29-1.27,1.73a.93.93,0,0,1-.75.37.9.9,0,0,1-.54-.18.92.92,0,0,1-.2-1.29l1.27-1.73a.92.92,0,0,1,1.29-.2A.94.94,0,0,1,313.86,385.73ZM318,398a.94.94,0,0,1-1.16.59l-2-.68a.92.92,0,1,1,.58-1.75l2,.68A.91.91,0,0,1,318,398Zm-.56-6.32-2,.65a1,1,0,0,1-.29.05.93.93,0,0,1-.27-1.81l2-.65a.92.92,0,1,1,.56,1.76Z" transform="translate(-281.01 -370.51)"/></svg>